<?xml version="1.0" encoding="UTF-8" standalone="no"?>
<!-- Created with Inkscape (http://www.inkscape.org/) -->

<svg
   xmlns:dc="http://purl.org/dc/elements/1.1/"
   xmlns:cc="http://creativecommons.org/ns#"
   xmlns:rdf="http://www.w3.org/1999/02/22-rdf-syntax-ns#"
   xmlns:svg="http://www.w3.org/2000/svg"
   xmlns="http://www.w3.org/2000/svg"
   xmlns:sodipodi="http://sodipodi.sourceforge.net/DTD/sodipodi-0.dtd"
   xmlns:inkscape="http://www.inkscape.org/namespaces/inkscape"
   width="210mm"
   height="297mm"
   viewBox="0 0 744.09448819 1052.3622047"
   id="svg2"
   version="1.1"
   inkscape:version="0.91 r13725"
   sodipodi:docname="drawing.svg">
  <defs
     id="defs4" />
  <sodipodi:namedview
     id="base"
     pagecolor="#ffffff"
     bordercolor="#666666"
     borderopacity="1.0"
     inkscape:pageopacity="0.0"
     inkscape:pageshadow="2"
     inkscape:zoom="0.7"
     inkscape:cx="185.82297"
     inkscape:cy="497.54256"
     inkscape:document-units="px"
     inkscape:current-layer="layer1"
     showgrid="false"
     inkscape:window-width="1440"
     inkscape:window-height="837"
     inkscape:window-x="-8"
     inkscape:window-y="-8"
     inkscape:window-maximized="1" />
  <metadata
     id="metadata7">
    <rdf:RDF>
      <cc:Work
         rdf:about="">
        <dc:format>image/svg+xml</dc:format>
        <dc:type
           rdf:resource="http://purl.org/dc/dcmitype/StillImage" />
        <dc:title></dc:title>
      </cc:Work>
    </rdf:RDF>
  </metadata>
  <g
     inkscape:label="Capa 1"
     inkscape:groupmode="layer"
     id="layer1">
    <path
       style="fill:none;fill-opacity:1;stroke:#000000;stroke-width:3.13774109;stroke-miterlimit:4;stroke-dasharray:none"
       d="m 359.68617,451.32141 c -5.25814,1.54114 -10.4915,2.32859 -15.67571,2.43028 -5.18422,0.10169 -10.31929,-0.48237 -15.38085,-1.68425 -5.06156,-1.20188 -10.0496,-3.02158 -14.93977,-5.39115 -4.89016,-2.36957 -9.68244,-5.28902 -14.35246,-8.6904 -4.67003,-3.40138 -9.2178,-7.2847 -13.61895,-11.58202 -4.40115,-4.29731 -8.65567,-9.00862 -12.73921,-14.06599 -4.08353,-5.05736 -7.99607,-10.46078 -11.71325,-16.14231 -3.71717,-5.68154 -7.23899,-11.64119 -10.54107,-17.81101 -3.30208,-6.16983 -6.38444,-12.54983 -9.22268,-19.07206 -2.83825,-6.52223 -5.4324,-13.1867 -7.75807,-19.92546 -2.32568,-6.73877 -4.38288,-13.55182 -6.14724,-20.37123 -1.76436,-6.81941 -3.23588,-13.64518 -4.39019,-20.40936 -1.15431,-6.76418 -1.9914,-13.46677 -2.48692,-20.03984 -0.49551,-6.57306 -0.64945,-13.0166 -0.43743,-19.26268 0.21202,-6.24607 0.78999,-12.29468 1.75828,-18.07788 0.96829,-5.7832 2.3269,-11.30099 4.1002,-16.48544 1.00536,-2.93927 2.23336,-5.74957 3.66429,-8.43409 1.43093,-2.68452 3.06479,-5.24327 4.88188,-7.67947 1.81709,-2.43619 3.8174,-4.74982 5.98123,-6.94411 2.16384,-2.19428 4.49119,-4.26922 6.96235,-6.22802 2.47116,-1.9588 5.08614,-3.80146 7.82522,-5.5312 2.73907,-1.72974 5.60226,-3.34655 8.56984,-4.85364 2.96758,-1.5071 6.03956,-2.90448 9.19622,-4.19536 3.15667,-1.29088 6.39803,-2.47525 9.70437,-3.55633 3.30634,-1.08108 6.67766,-2.05887 10.09426,-2.93657 3.4166,-0.8777 6.87847,-1.65532 10.36592,-2.33607 3.48744,-0.68075 7.00045,-1.26463 10.51933,-1.75485 3.51887,-0.49022 7.0436,-0.88678 10.55449,-1.19289 3.51089,-0.30611 7.00793,-0.52177 10.47142,-0.6502 3.46349,-0.12842 6.89343,-0.1696 10.27011,-0.12676 3.37668,0.0428 6.70009,0.16971 9.95055,0.37739 3.25045,0.20768 6.42793,0.49619 9.51274,0.86229 4.58439,0.54407 9.1533,1.27287 13.70008,2.1766 4.54679,0.90373 9.07146,1.98239 13.56736,3.22621 4.4959,1.24382 8.96303,2.6528 13.39476,4.21714 4.43172,1.56435 8.82804,3.28406 13.1823,5.14937 4.35426,1.86531 8.66647,3.8762 12.92998,6.0229 4.26351,2.1467 8.47833,4.42921 12.6378,6.83774 4.15948,2.40853 8.26361,4.94308 12.30576,7.59388 4.04215,2.6508 8.02231,5.41784 11.93385,8.29134 3.91154,2.8735 7.75445,5.85346 11.52208,8.9301 3.76764,3.07664 7.46,6.24995 11.07045,9.51016 3.61045,3.26021 7.13899,6.60732 10.57896,10.03153 3.43998,3.42422 6.79139,6.92555 10.04761,10.49421 3.25621,3.56866 6.41723,7.20465 9.47639,10.89818 3.05916,3.69354 6.01648,7.44463 8.86531,11.24348 2.84883,3.79885 5.58917,7.64546 8.21437,11.53006 2.62521,3.8846 5.13528,7.80719 7.52357,11.75797 2.13398,3.53009 4.16775,7.13607 6.10146,10.81027 1.9337,3.6742 3.76735,7.41661 5.50107,11.21957 1.73373,3.80295 3.36753,7.66643 4.90156,11.58278 1.53403,3.91634 2.96828,7.88554 4.3029,11.89992 1.33462,4.01438 2.5696,8.07393 3.70509,12.17099 1.1355,4.09705 2.1715,8.2316 3.10816,12.39597 0.93665,4.16436 1.77396,8.35855 2.51206,12.57487 0.7381,4.21633 1.377,8.45479 1.91684,12.70771 0.53984,4.25292 0.98061,8.5203 1.32247,12.79446 0.34186,4.27415 0.5848,8.55509 0.72897,12.83513 0.14416,4.28003 0.18955,8.55917 0.13631,12.82972 -0.0532,4.27056 -0.20512,8.53253 -0.45548,12.77825 -0.25036,4.24571 -0.59921,8.47517 -1.04641,12.68068 -0.44719,4.20551 -0.99274,8.38709 -1.63648,12.53704 -0.64374,4.14996 -1.38569,8.26829 -2.22569,12.34733 -0.84001,4.07904 -1.77807,8.11877 -2.81405,12.11153 -1.04292,4.01952 -2.19842,8.0266 -3.46221,12.01552 -1.26379,3.98891 -2.63588,7.95966 -4.11198,11.9065 -1.4761,3.94685 -3.05622,7.86979 -4.73607,11.76311 -1.67985,3.89331 -3.45945,7.757 -5.3345,11.58532 -1.87505,3.82832 -3.84556,7.62128 -5.90726,11.37315 -2.06169,3.75187 -4.21456,7.46264 -6.45434,11.12659 -2.23978,3.66396 -4.56646,7.28108 -6.97577,10.84566 -2.40931,3.56457 -4.90124,7.07659 -7.47152,10.53032 -2.57028,3.45373 -5.21891,6.84918 -7.94161,10.18061 -2.7227,3.33144 -5.51947,6.59885 -8.38603,9.79652 -2.86656,3.19767 -5.80291,6.32559 -8.80478,9.37803 -3.00187,3.05244 -6.06924,6.0294 -9.19786,8.92516 -3.12861,2.89575 -6.31847,5.7103 -9.56527,8.43791 -3.24681,2.7276 -6.55058,5.36827 -9.90702,7.91626 -3.35645,2.548 -6.76557,5.00332 -10.2231,7.36024 -3.45752,2.35692 -6.96345,4.61544 -10.5135,6.76983 -1.87941,1.14054 -3.79539,2.22711 -5.74447,3.26054 -1.94908,1.03344 -3.93128,2.01375 -5.94315,2.94179 -2.01186,0.92805 -4.0534,1.80382 -6.12116,2.62818 -2.06775,0.82436 -4.16174,1.5973 -6.2785,2.31969 -2.11676,0.72239 -4.2563,1.39422 -6.41518,2.01634 -2.15887,0.62213 -4.33708,1.19456 -6.53118,1.71814 -2.1941,0.52358 -4.40409,0.99831 -6.62653,1.42505 -2.22244,0.42675 -4.45732,0.8055 -6.7012,1.13712 -2.24388,0.33162 -4.49677,0.61611 -6.7552,0.85431 -2.25844,0.23821 -4.52244,0.43014 -6.78854,0.57664 -2.26611,0.14651 -4.53433,0.24759 -6.80121,0.30411 -2.26689,0.0565 -4.53244,0.0685 -6.79321,0.0367 -2.26077,-0.0318 -4.51677,-0.10724 -6.76455,-0.22557 -2.24777,-0.11832 -4.48732,-0.27951 -6.71521,-0.48269 -2.22788,-0.20319 -4.4441,-0.44837 -6.6452,-0.7347 -2.20111,-0.28632 -4.3871,-0.61379 -6.55454,-0.98155 -2.90479,-0.49287 -5.82274,-1.03906 -8.74771,-1.63922 -2.92497,-0.60017 -5.85695,-1.25431 -8.78981,-1.96309 -2.93286,-0.70878 -5.8666,-1.4722 -8.79507,-2.29091 -2.92847,-0.81871 -5.85168,-1.69272 -8.76348,-2.62267 -2.9118,-0.92996 -5.81219,-1.91586 -8.69504,-2.95838 -2.88285,-1.04251 -5.74815,-2.14164 -8.58976,-3.29803 -2.84161,-1.15639 -5.65954,-2.37005 -8.44763,-3.64163 -2.7881,-1.27158 -5.54637,-2.60109 -8.26867,-3.98918 -2.7223,-1.38809 -5.40863,-2.83476 -8.05284,-4.34067 -2.64422,-1.50591 -5.24633,-3.07106 -7.80019,-4.69611 -2.55386,-1.62504 -5.05946,-3.30999 -7.51068,-5.05549 -2.45121,-1.7455 -4.84803,-3.55155 -7.18432,-5.41882 -2.33629,-1.86727 -4.61205,-3.79575 -6.82113,-5.7861 -2.20908,-1.99035 -4.35149,-4.04257 -6.42109,-6.15732 -2.0696,-2.11475 -4.06638,-4.29203 -5.9842,-6.5325 -1.91783,-2.24046 -3.7567,-4.54411 -5.51047,-6.9116 -2.25359,-3.04221 -4.45864,-6.18178 -6.60667,-9.40828 -2.14804,-3.2265 -4.23906,-6.53994 -6.26458,-9.92987 -2.02553,-3.38994 -3.98556,-6.85639 -5.87161,-10.38891 -1.88605,-3.53253 -3.69812,-7.13113 -5.42774,-10.78539 -1.72962,-3.65426 -3.37678,-7.36418 -4.933,-11.11932 -1.55622,-3.75515 -3.0215,-7.55552 -4.38736,-11.3907 -1.36586,-3.83518 -2.6323,-7.70517 -3.79084,-11.59953 -1.15855,-3.89436 -2.20919,-7.8131 -3.14345,-11.74579 -0.93426,-3.93269 -1.75215,-7.87934 -2.44517,-11.82952 -0.69302,-3.95017 -1.26118,-7.90387 -1.69599,-11.85067 -0.43482,-3.9468 -0.73629,-7.88671 -0.89594,-11.80929 -0.15966,-3.92258 -0.17749,-7.82783 -0.045,-11.70534 0.13247,-3.87751 0.41525,-7.72726 0.85682,-11.53884 0.44156,-3.81158 1.04191,-7.58499 1.80953,-11.3098 0.76761,-3.72481 1.70249,-7.40101 2.81312,-11.01819 1.11062,-3.61718 2.39699,-7.17534 3.86759,-10.66404 1.0108,-2.39793 2.14274,-4.75751 3.38687,-7.07434 1.24414,-2.31683 2.60048,-4.59091 4.06009,-6.81787 1.45961,-2.22696 3.02251,-4.40679 4.67975,-6.5351 1.65724,-2.12832 3.40883,-4.20512 5.24585,-6.22602 1.83702,-2.0209 3.75946,-3.9859 5.7584,-5.89062 1.99893,-1.90472 4.07437,-3.74915 6.21738,-5.52892 2.14301,-1.77976 4.35359,-3.49486 6.62282,-5.1409 2.26922,-1.64605 4.5971,-3.22304 6.97469,-4.72659 2.37759,-1.50355 4.8049,-2.93366 7.273,-4.28595 2.46811,-1.35229 4.977,-2.62675 7.51777,-3.81901 2.54076,-1.19225 5.1134,-2.3023 7.70897,-3.32575 2.59557,-1.02345 5.21409,-1.96031 7.84662,-2.80619 2.63253,-0.84588 5.27907,-1.60078 7.93071,-2.26032 2.65163,-0.65954 5.30835,-1.22371 7.96124,-1.68813 2.65288,-0.46443 5.30192,-0.82911 7.93821,-1.08965 2.63628,-0.26054 5.2598,-0.41695 7.86163,-0.46484 1.56613,-0.0288 3.139,0.0117 4.71479,0.1184 1.57579,0.10666 3.1545,0.27941 4.73228,0.51495 1.57778,0.23553 3.15464,0.53386 4.72675,0.89168 1.5721,0.35782 3.13945,0.77512 4.69821,1.24861 1.55876,0.47349 3.10893,1.00317 4.64667,1.58573 1.53775,0.58256 3.06307,1.218 4.57212,1.90303 1.50906,0.68502 3.00186,1.41963 4.47456,2.20052 1.47271,0.78089 2.92531,1.60806 4.35399,2.4782 1.42868,0.87015 2.83343,1.78327 4.21041,2.73607 1.37699,0.9528 2.72621,1.94528 4.04383,2.97413 1.31762,1.02885 2.60365,2.09407 3.85423,3.19237 1.25059,1.09829 2.46575,2.22966 3.64163,3.3908 1.17588,1.16114 2.3125,2.35204 3.40601,3.56942 1.09351,1.21738 2.14392,2.46122 3.14739,3.72823 1.00348,1.26702 1.96001,2.5572 2.86577,3.86724 0.90576,1.31004 1.76074,2.63995 2.56112,3.98642 0.59185,0.99566 1.18736,2.06353 1.77942,3.19196 0.59206,1.12843 1.18067,2.31743 1.75872,3.55534 0.57805,1.23791 1.14554,2.52475 1.69536,3.84886 0.54982,1.32411 1.08196,2.6855 1.58932,4.07253 0.50736,1.38703 0.98994,2.79969 1.44061,4.22635 0.45068,1.42666 0.86947,2.86731 1.24924,4.31031 0.37978,1.443 0.72054,2.88836 1.01519,4.32442 0.29465,1.43606 0.54318,2.86283 0.73848,4.26867 0.1953,1.40584 0.33737,2.79074 0.4191,4.14307 0.0817,1.35233 0.10311,2.67208 0.057,3.94761 -0.0461,1.27553 -0.15959,2.50685 -0.34768,3.6823 -0.18809,1.17546 -0.45074,2.29505 -0.79507,3.34714 -0.34433,1.05209 -0.77033,2.03667 -1.28513,2.94211 -0.51479,0.90544 -1.11837,1.73174 -1.81786,2.46724 -0.69948,0.73551 -1.49486,1.38023 -2.39325,1.92252 -0.89839,0.54229 -1.89979,0.98215 -3.01132,1.30793 z"
       id="path4136"
       inkscape:connector-curvature="0"
       sodipodi:nodetypes="sssssssssssssssssssssssssssssssssssssssssssssssssssssssssssssssssssssssssssssssssssssssssssssssssssssssssssssssssssssssssssssssssssssssssssssssssssssssssssssssssssssssssssssssss" />
  </g>
</svg>
